<svg xmlns="http://www.w3.org/2000/svg" viewBox="0 0 243.18 91.23"><defs><style>.cls-1{fill:#f38f00;}.cls-2{fill:#505051;}</style></defs><title>Zasób 5</title><g id="Warstwa_2" data-name="Warstwa 2"><g id="Warstwa_1-2" data-name="Warstwa 1"><path class="cls-1" d="M72,92v16.92H4.23V95.45L38.82,62.78c8-7.56,9.36-12.17,9.36-16.53,0-7-4.87-11.15-14.35-11.15-7.69,0-14.23,2.95-18.58,9L.13,34.34C7.05,24.21,19.6,17.68,35.75,17.68c20,0,33.31,10.25,33.31,26.52,0,8.71-2.43,16.66-15,28.32L33.44,92Z" transform="translate(-0.13 -17.68)"/><path class="cls-2" d="M86.23,19.22H107V92h45v16.92H86.23Z" transform="translate(-0.13 -17.68)"/><path class="cls-1" d="M243.31,84.43c0,15.51-12.3,24.48-35.87,24.48H161.05V19.22h43.82c22.42,0,34,9.35,34,23.32a21.58,21.58,0,0,1-11.92,19.73C236.9,65.47,243.31,73.16,243.31,84.43ZM181.68,34.85V56h20.63c10.12,0,15.63-3.59,15.63-10.64s-5.51-10.5-15.63-10.5Zm40.75,47.41c0-7.56-5.77-11.15-16.53-11.15H181.68V93.27H205.9C216.66,93.27,222.43,89.94,222.43,82.26Z" transform="translate(-0.13 -17.68)"/></g></g></svg>