<svg id="Layer_1" data-name="Layer 1" xmlns="http://www.w3.org/2000/svg" viewBox="0 0 157.51 47.22"><defs><style>.cls-1,.cls-7{fill:#f28f04;}.cls-2,.cls-4{fill:#575756;}.cls-3{fill:#ededed;}.cls-4{font-size:14px;font-family:Montserrat-Bold, Montserrat;font-weight:700;letter-spacing:-0.03em;}.cls-5{letter-spacing:-0.03em;}.cls-6{letter-spacing:-0.02em;}.cls-7{letter-spacing:-0.03em;}.cls-8{fill:#1d1d1b;letter-spacing:-0.02em;}.cls-9{font-family:Montserrat-Regular, Montserrat;font-weight:400;letter-spacing:-0.07em;}</style></defs><title>drogprof</title><path class="cls-1" d="M24.68,32.5l-.9-2.14.93-.4.58,1.38a17.36,17.36,0,0,1,1.22-1.81l-9-3.69,5.09,12.08,1.1-2.7a17.5,17.5,0,0,1,.61-1.81C24.39,33.1,24.54,32.8,24.68,32.5Z" transform="translate(-15.72 -15.91)"/><path class="cls-1" d="M54,46.85l.82,1.93-.93.39L53.39,48a17.19,17.19,0,0,1-1.09,1.59l8.77,3.58-5-11.89-.74,1.81a17.27,17.27,0,0,1-.83,2.68C54.34,46.13,54.18,46.5,54,46.85Z" transform="translate(-15.72 -15.91)"/><path class="cls-1" d="M37.46,22.79,24.84,17.64c-1.32.87-4.42,3.68-4.42,3.68a26.16,26.16,0,0,0-2.62,3.19l9.64,3.93A16.34,16.34,0,0,1,31,25.62L29.55,25l.38-.94,2.22.91.86-.4c.38-.15.75-.29,1.14-.42Zm-13.75-.13.38-.94L27,22.91l-.38.94Z" transform="translate(-15.72 -15.91)"/><path class="cls-1" d="M53.79,61.4c1.32-.87,4.42-3.68,4.42-3.68a25.36,25.36,0,0,0,2.62-3.2l-9.46-3.85a16.39,16.39,0,0,1-3.47,2.84l1.18.49-.38.93-1.94-.79q-.52.27-1.08.51a16.17,16.17,0,0,1-2.74.88l-1.75.73Zm-2.16-5.28.38-.93,2.92,1.19-.38.93Z" transform="translate(-15.72 -15.91)"/><path class="cls-1" d="M39.65,23.34a16.25,16.25,0,0,1,5.79,1.2l.88.39,2.2-.92.39.93-1.43.6a16,16,0,0,1,1.84,1.24L53,17.71Z" transform="translate(-15.72 -15.91)"/><path class="cls-1" d="M38.5,55.92a16.31,16.31,0,0,1-5.38-1.19c-.37-.15-.74-.32-1.1-.49l-1.92.81-.4-.94,1.19-.49c-.56-.34-1.09-.71-1.61-1.1L25.7,61.31Z" transform="translate(-15.72 -15.91)"/><path class="cls-2" d="M54.34,18.06l-4.49,11A14.88,14.88,0,0,0,25.53,34,16.55,16.55,0,0,0,25,35.55a14.69,14.69,0,0,0,.61,9.8,14.8,14.8,0,0,0,8.09,8h0a14.9,14.9,0,0,0,18.73-6.74L61.21,25.1c-.87-1.32-3.68-4.42-3.68-4.42A28,28,0,0,0,54.34,18.06ZM29.43,44.19a11.35,11.35,0,0,1-.89-2.83h0l1-.17a10.09,10.09,0,0,0,.8,2.57Zm4.43-6.84a5.85,5.85,0,0,1,7.63-3.21,6,6,0,0,1,.91.47l.09,0,.21.15L43,35l.11.09.34.31,0,0A5.9,5.9,0,0,1,45,41l-.11.27a3.75,3.75,0,0,1-.19.53c-.07.17-.15.34-.23.51l-.12.28a5.75,5.75,0,0,1-1.94,2s0,0,0,0l-.39.21,0,0c-.13.06-.26.13-.4.18a6.45,6.45,0,0,1-1,.31l-.11,0-.27,0-.32,0H39.8A5.93,5.93,0,0,1,37.1,45a5.73,5.73,0,0,1-1-.54l-.21-.15-.19-.14-.32-.26,0,0A5.86,5.86,0,0,1,33.86,37.35Zm11.3-6.94-.55.85a9.38,9.38,0,0,0-2.44-1.14l.3-1A10.5,10.5,0,0,1,45.16,30.41Zm1.69,2.83.78-.64a10.72,10.72,0,0,1,1.56,2.52l-.92.41A9.85,9.85,0,0,0,46.85,33.24ZM33.57,48.81a11,11,0,0,1-2.3-1.89l.74-.68A10.42,10.42,0,0,0,34.1,48Zm3,1.27.24-1a9.71,9.71,0,0,0,2.68.29l0,1A10.48,10.48,0,0,1,36.61,50.08Zm7.15-.65-.28.13-.68.26-.33-1c.21-.07.41-.14.62-.23a10.76,10.76,0,0,0,1.79-1l.57.83h0A10.43,10.43,0,0,1,43.76,49.43Zm4.09-3.22-.8-.62a9.61,9.61,0,0,0,1.34-2.33h0l.94.38A10.74,10.74,0,0,1,47.85,46.21ZM50,41.27l-1-.17a9.94,9.94,0,0,0,.06-2.67h0l.56-.07.44-.05A11.36,11.36,0,0,1,50,41.27ZM39.21,28.67h0v1a10.06,10.06,0,0,0-2.67.37l-.28-1A10.87,10.87,0,0,1,39.21,28.67ZM31,32.41a11.17,11.17,0,0,1,1.63-1.52l.61-.43.55.84a10.08,10.08,0,0,0-2,1.78L31,32.41Zm-2.55,5.65a9.69,9.69,0,0,1,.44-1.9s0-.06,0-.08l.09-.23.15-.41h0c0-.07.07-.15.1-.23h0l.93.41a1.33,1.33,0,0,0-.09.21c-.08.19-.15.38-.22.58a9.4,9.4,0,0,0-.42,1.8l-1-.14Zm25.06-5-.93-.38,1.19-2.92.93.38Zm2.38-5.84L55,26.89,56.19,24l.94.37Z" transform="translate(-15.72 -15.91)"/><path class="cls-1" d="M28.18,51.63a16.09,16.09,0,0,1-2.84-3.47l-.49,1.18L23.92,49,24.71,47c-.19-.36-.35-.72-.51-1.09a16.43,16.43,0,0,1-1.26-5.36L17.45,54.05c.87,1.32,3.68,4.42,3.68,4.42a26,26,0,0,0,3.19,2.62Zm-5.46.26.94.38-1.19,2.92-.94-.38Z" transform="translate(-15.72 -15.91)"/><rect class="cls-3" x="52.77" y="54.63" width="1.01" height="3.15" transform="translate(-34.61 68.38) rotate(-67.8)"/><rect class="cls-3" x="24.85" y="21.16" width="1.01" height="3.16" transform="matrix(0.38, -0.93, 0.93, 0.38, -20.99, 21.72)"/><path class="cls-3" d="M62.85,53.83l-.26-.61L57,39.81l-.15-.36,5.66-13.88.28-.66,0-.07h0l-1-1.39A26.16,26.16,0,0,0,59,20.12l0,0,0,0-.32-.28,0,0,0,0,0,0A26,26,0,0,0,55.17,17c-.33-.26-.65-.49-.9-.65L54,16.09l-.23-.16h0l0,0-.66.28L39.22,22,25.35,16.34l-.66-.28,0,0h0l-.23.16-.32.21c-.25.17-.56.4-.89.66a26.89,26.89,0,0,0-3.27,2.75l0,0,0,0-.05.06-.31.28,0,0,0,0a26.09,26.09,0,0,0-2.76,3.36l-1,1.39,0,0,0,.06.27.66,5.84,13.83-.16.36L16.19,53.49l-.25.62-.07,0,.53.73c.06.09.13.19.21.29l.25.36a27.7,27.7,0,0,0,2.79,3.32l0,0,0,0,.09.08.31.35,0,0,0,0a28.76,28.76,0,0,0,3.36,2.75l1.39,1L25,63l.64-.27L39,57.13l.4-.17.38.16,13.48,5.49.64.26L54,63l1.38-1a27.8,27.8,0,0,0,3.33-2.79l0,0,0,0,.31-.35.09-.08,0,0,0,0c1-1,3.73-4.75,3.73-4.75Zm-9.46-5.89.5,1.19.93-.4L54,46.81c.18-.36.34-.73.5-1.1A17.27,17.27,0,0,0,55.33,43l.74-1.81,5,11.89L52.3,49.53A15.94,15.94,0,0,0,53.39,47.94ZM53,17.66l-3.69,9.07a17.33,17.33,0,0,0-1.84-1.23l1.43-.61L48.52,24l-2.2.93-.88-.4a16.25,16.25,0,0,0-5.79-1.2ZM25.29,31.3l-.58-1.38-.93.39.9,2.14c-.14.3-.28.61-.41.92a17.34,17.34,0,0,0-.61,1.8l-1.1,2.7L17.47,25.8l9,3.68A18.63,18.63,0,0,0,25.29,31.3Zm2.15-2.91L17.8,24.46a26.94,26.94,0,0,1,2.62-3.19s3.1-2.81,4.42-3.68l12.62,5.16-3.31,1.39c-.39.13-.76.27-1.14.43s-.58.25-.86.39l-2.22-.9-.38.93,1.41.58A16.34,16.34,0,0,0,27.44,28.39ZM24.32,61.05a28,28,0,0,1-3.19-2.62s-2.81-3.1-3.68-4.43l5.49-13.47a16.31,16.31,0,0,0,1.26,5.36c.16.37.33.74.51,1.09l-.79,1.94.93.38.49-1.19a15.85,15.85,0,0,0,2.84,3.47Zm1.38.22,3.58-8.8a17.59,17.59,0,0,0,1.61,1.1l-1.19.5.4.93L32,54.19c.35.17.72.34,1.09.49a16.33,16.33,0,0,0,5.38,1.2Zm8-8h0a14.8,14.8,0,0,1-8.09-8A14.67,14.67,0,0,1,25,35.51,14.88,14.88,0,0,1,49.85,29l4.49-11a28,28,0,0,1,3.19,2.62s2.81,3.11,3.68,4.42L52.42,46.58a14.88,14.88,0,0,1-18.73,6.73Zm24.52,4.36s-3.1,2.81-4.42,3.68l-12.6-5.13,1.75-.74a16.17,16.17,0,0,0,2.74-.88c.37-.16.73-.32,1.09-.51l1.93.79.38-.93-1.18-.49a16.09,16.09,0,0,0,3.47-2.84l9.46,3.86A25.27,25.27,0,0,1,58.21,57.67Z" transform="translate(-15.72 -15.91)"/><path class="cls-3" d="M49,41.06l1,.16a10.94,10.94,0,0,0,.06-3l-.44,0-.56.07h0v0A9.94,9.94,0,0,1,49,41.06Z" transform="translate(-15.72 -15.91)"/><path class="cls-3" d="M48.39,43.22h0a9.8,9.8,0,0,1-1.34,2.33l.8.62a11.3,11.3,0,0,0,1.48-2.57Z" transform="translate(-15.72 -15.91)"/><path class="cls-3" d="M45,40.92a5.91,5.91,0,0,0-1.55-5.53l0,0-.34-.32L43,35l-.27-.2-.21-.15-.09-.06a6,6,0,0,0-.91-.47,5.85,5.85,0,0,0-6.15,9.74l0,0,.32.27.19.14.21.14a5.14,5.14,0,0,0,1,.54,5.93,5.93,0,0,0,2.7.41h.11l.32,0,.27-.05.11,0a4.76,4.76,0,0,0,1-.31c.14-.05.27-.12.4-.18h0l.39-.22h0a5.87,5.87,0,0,0,1.94-2l.12-.28c.08-.16.16-.33.23-.51a3.75,3.75,0,0,0,.19-.53ZM39.93,44a4.55,4.55,0,0,1-4.4-7,4.45,4.45,0,0,1,2-1.69,4.5,4.5,0,0,1,3.06-.17l.32.11.07,0A4.55,4.55,0,0,1,39.93,44Z" transform="translate(-15.72 -15.91)"/><polygon class="cls-3" points="5.82 38.85 6.75 39.23 7.95 36.31 7.01 35.93 5.82 38.85"/><path class="cls-3" d="M44.61,31.21l.55-.85a10.82,10.82,0,0,0-2.69-1.25l-.29,1A9.81,9.81,0,0,1,44.61,31.21Z" transform="translate(-15.72 -15.91)"/><path class="cls-3" d="M30.13,35.77l.09-.21-.93-.4h0a2.29,2.29,0,0,1-.1.23h0L29,35.8,29,36s0,0,0,.08a9.69,9.69,0,0,0-.44,1.9h0l1,.13a9.4,9.4,0,0,1,.42-1.8C30,36.16,30.05,36,30.13,35.77Z" transform="translate(-15.72 -15.91)"/><path class="cls-3" d="M39.21,28.62h0c-.25,0-.49,0-.74,0a9.13,9.13,0,0,0-1.47.21c-.24.05-.49.11-.72.18l.27,1a9.68,9.68,0,0,1,2.67-.38Z" transform="translate(-15.72 -15.91)"/><path class="cls-3" d="M28.54,41.31h0a8.79,8.79,0,0,0,.22,1,10.94,10.94,0,0,0,.67,1.84l.91-.43a10.09,10.09,0,0,1-.8-2.57Z" transform="translate(-15.72 -15.91)"/><path class="cls-3" d="M33.28,30.41l-.61.43A10.71,10.71,0,0,0,31,32.37l.77.66a9.73,9.73,0,0,1,2-1.77Z" transform="translate(-15.72 -15.91)"/><path class="cls-3" d="M43.09,48.58c-.21.09-.41.17-.62.24l.33,1c.23-.08.46-.16.68-.26l.28-.12a10.82,10.82,0,0,0,1.69-1h0l-.57-.83A10.08,10.08,0,0,1,43.09,48.58Z" transform="translate(-15.72 -15.91)"/><rect class="cls-3" x="54.48" y="25.06" width="3.16" height="1.01" transform="translate(-4.37 52.05) rotate(-67.99)"/><text x="-15.72" y="-15.91"/><path class="cls-3" d="M49.19,35.07a10.93,10.93,0,0,0-1.56-2.52l-.78.64a10.06,10.06,0,0,1,1.42,2.29Z" transform="translate(-15.72 -15.91)"/><path class="cls-3" d="M36.85,49.06l-.24,1a10.81,10.81,0,0,0,3,.32l0-1A9.71,9.71,0,0,1,36.85,49.06Z" transform="translate(-15.72 -15.91)"/><path class="cls-3" d="M31.27,46.87a11,11,0,0,0,2.3,1.89l.53-.86A10.09,10.09,0,0,1,32,46.19Z" transform="translate(-15.72 -15.91)"/><text class="cls-4" transform="translate(52.08 27.7)">se<tspan class="cls-5" x="15.57" y="0">c</tspan><tspan x="23.39" y="0">o</tspan><tspan class="cls-6" x="32.21" y="0">n</tspan><tspan x="41.62" y="0">d</tspan><tspan class="cls-1" x="50.96" y="0">li</tspan><tspan class="cls-7" x="58.69" y="0">f</tspan><tspan class="cls-1" x="63.66" y="0">e</tspan><tspan class="cls-8" x="72.14" y="0"> </tspan><tspan class="cls-9" x="75.75" y="0">bruk</tspan></text></svg>