<svg xmlns="http://www.w3.org/2000/svg" viewBox="0 0 134.64 114.58"><defs><style>.cls-1{fill:#505051;}.cls-1,.cls-2,.cls-3,.cls-4{fill-rule:evenodd;}.cls-2{fill:#f18e00;}.cls-3{fill:#eeefef;}.cls-4{fill:#f39b11;}</style></defs><title>Zasób 1</title><g id="Warstwa_2" data-name="Warstwa 2"><g id="Warstwa_1-2" data-name="Warstwa 1"><path class="cls-1" d="M30.27,6.43.53,70.07a5.58,5.58,0,0,0,2.7,7.44l63.61,29.78a5.71,5.71,0,0,0,7.56-2.74l29.73-63.64a5.58,5.58,0,0,0-2.69-7.44L37.82,3.69A5.7,5.7,0,0,0,30.27,6.43Z"/><path class="cls-1" d="M104.37,6.43l29.74,63.64a5.58,5.58,0,0,1-2.7,7.44L67.8,107.29a5.71,5.71,0,0,1-7.56-2.74L30.51,40.91a5.58,5.58,0,0,1,2.69-7.44L96.82,3.69A5.7,5.7,0,0,1,104.37,6.43Z"/><path class="cls-2" d="M70.45,48.61l.38.48c1.13-.72,4.16-4.22,5.48-5.42,3.22-3.26-2.08-2.17,4.16-7.36,1,.49,12.67,11.82,13.24,12.66-3.59,5.06-4.35,1.45-7,3-.19.13-4.35,4-4.73,4.83l.19.12,1.89-1.33C86,58,96.17,66.93,97.11,68.5c-5.67,6.15-3-1.45-10,5.79-1.13,1.2-3.4,2.29-3.59,4.33,0,1.81.94,3.14-3,5.55C79,83.45,69.31,73.8,67.23,71.63c.57-1.08,1.7-1.56,2.46-2.53l-.38-.36c-1.13.24-4.91,4.1-5.86,5.06-1.89,1.69-.19,2.78-1.13,4.7A7.81,7.81,0,0,1,59.1,81L46.43,68.26c1.13-1.69,2.27-2.53,4.92-2.53s3.21-1.21,4.54-2.78c6.24-6.14,2.83-3.37,4-7.11.38-1.44.94-.72,1.51-2.17l-.19-.12c-4.73,1.57,1,4.94-5.48,8.32-2.27-1.93-4.16-4.1-6.43-6.27a59.27,59.27,0,0,1-6.62-6.51,26.54,26.54,0,0,1,3-2.41c2.27-.6,3,.72,4.73-1,2.27-2.17,3.78-4.1,5.86-5.31,0-3.61-.75-4.46,3.22-7a91,91,0,0,1,6.62,6.27c1.32,1.33,5.67,5.06,6.43,6.63l-2.08,2.29ZM72.53,1.72a5.9,5.9,0,0,0-8.32,0L12.77,53.19a5.79,5.79,0,0,0,0,8.2l51.44,51.47a5.9,5.9,0,0,0,8.32,0L124,61.39a5.79,5.79,0,0,0,0-8.2Z"/><path class="cls-3" d="M70.83,49.09c-1.52.6-4,0-4.54.24L63.64,52C65,53.67,75.55,63.8,76.88,65c.94-.84,2.27-1.93,3-2.77.38-3.49-.56-4.34,2.08-5.42.38-.85,4.54-4.7,4.73-4.83,2.65-1.56,3.41,2.05,7-3-.57-.84-12.29-12.17-13.24-12.66-6.24,5.19-.94,4.1-4.16,7.36C75,44.87,72,48.37,70.83,49.09Z"/><path class="cls-3" d="M82.17,56.93c-1.32,2.29-1.51.12-1.51,5.66-1.13,1-3.4,2.9-4.54,4.1-2.84,3.38-2.08,1.57-6.43,2.41-.76,1-1.89,1.45-2.46,2.53C69.31,73.8,79,83.45,80.47,84.17c4-2.41,3-3.74,3-5.55.19-2,2.46-3.13,3.59-4.33,7-7.24,4.35.36,10-5.79C96.17,66.93,86,58,84.06,55.6Z"/><path class="cls-3" d="M61.37,53.67c-.57,1.45-1.13.73-1.51,2.17-1.14,3.74,2.27,1-4,7.11-1.33,1.57-1.9,2.9-4.54,2.78s-3.79.84-4.92,2.53L59.1,81a7.81,7.81,0,0,0,3.22-2.54c.94-1.92-.76-3,1.13-4.7,1-1,4.73-4.82,5.86-5.06.38-.6-.38-.24,1-.48,2.46-.6,2.65,1.32,6-2.65a36.18,36.18,0,0,0-3.4-3.38A20.23,20.23,0,0,0,69.69,59C67.8,57.17,65,54,62.88,52.71Z"/><path class="cls-3" d="M61.18,53.55A17.42,17.42,0,0,1,63.45,51c3-2.89,2.84-2.29,7-2.41l2.08-2.29c-.76-1.57-5.11-5.3-6.43-6.63a91,91,0,0,0-6.62-6.27c-4,2.53-3.22,3.38-3.22,7-2.08,1.21-3.59,3.14-5.86,5.31-1.7,1.68-2.46.36-4.73,1a26.54,26.54,0,0,0-3,2.41,59.27,59.27,0,0,0,6.62,6.51c2.27,2.17,4.16,4.34,6.43,6.27C62.13,58.49,56.45,55.12,61.18,53.55Z"/><path class="cls-4" d="M61.18,53.55l.19.12,1.51-1C65,54,67.8,57.17,69.69,59a20.23,20.23,0,0,1,3.22,3.25,36.18,36.18,0,0,1,3.4,3.38c-3.4,4-3.59,2-6,2.65-1.33.24-.57-.12-1,.48l.38.36c4.35-.84,3.59,1,6.43-2.41,1.14-1.2,3.41-3.13,4.54-4.1,0-5.54.19-3.37,1.51-5.66L82,56.81c-2.64,1.08-1.7,1.93-2.08,5.42-.75.84-2.08,1.93-3,2.77C75.55,63.8,65,53.67,63.64,52l2.65-2.65c.56-.24,3,.36,4.54-.24l-.38-.48c-4.16.12-4-.48-7,2.41A17.42,17.42,0,0,0,61.18,53.55Z"/></g></g></svg>