<svg id="Warstwa_1" data-name="Warstwa 1" xmlns="http://www.w3.org/2000/svg" viewBox="0 0 438.89 162.64"><defs><style>.cls-1,.cls-6{fill:#505051;}.cls-1,.cls-2,.cls-3,.cls-4{fill-rule:evenodd;}.cls-2{fill:#f18e00;}.cls-3{fill:#eeefef;}.cls-4{fill:#f39b11;}.cls-5{fill:#f38f00;}.cls-7{fill:#f08c00;}</style></defs><title>darek_3b_xl</title><path class="cls-1" d="M325.71,9.87,296,73.51a5.57,5.57,0,0,0,2.7,7.43l63.62,29.78a5.69,5.69,0,0,0,7.55-2.74l29.73-63.63a5.58,5.58,0,0,0-2.69-7.44L333.26,7.13A5.69,5.69,0,0,0,325.71,9.87Z" transform="translate(-3.01 -3.44)"/><path class="cls-1" d="M399.81,9.87l29.74,63.64a5.57,5.57,0,0,1-2.7,7.43l-63.61,29.78a5.69,5.69,0,0,1-7.55-2.74L326,44.35a5.58,5.58,0,0,1,2.69-7.44L392.26,7.13A5.69,5.69,0,0,1,399.81,9.87Z" transform="translate(-3.01 -3.44)"/><path class="cls-2" d="M365.89,52.05l.38.48c1.13-.72,4.16-4.22,5.48-5.42,3.22-3.26-2.08-2.17,4.16-7.36.95.48,12.67,11.82,13.24,12.66-3.59,5.06-4.35,1.45-7,3-.19.12-4.35,4-4.73,4.82l.19.13L379.5,59c1.9,2.41,12.11,11.33,13.05,12.9-5.67,6.15-3-1.45-10,5.78-1.13,1.21-3.4,2.29-3.59,4.34,0,1.81.94,3.14-3,5.55-1.51-.73-11.16-10.37-13.24-12.54.57-1.08,1.71-1.57,2.46-2.53l-.38-.36c-1.13.24-4.91,4.1-5.86,5.06-1.89,1.69-.19,2.77-1.13,4.7a7.71,7.71,0,0,1-3.22,2.53L341.87,71.7a5,5,0,0,1,4.92-2.54c2.65.13,3.21-1.2,4.54-2.77,6.24-6.15,2.83-3.37,4-7.11.38-1.45.94-.72,1.51-2.17l-.19-.12c-4.73,1.57.95,4.94-5.48,8.32-2.27-1.93-4.16-4.1-6.43-6.27a59.27,59.27,0,0,1-6.62-6.51,27.45,27.45,0,0,1,3-2.41c2.27-.6,3,.72,4.73-1,2.27-2.17,3.78-4.09,5.86-5.3,0-3.62-.75-4.46,3.22-7a91,91,0,0,1,6.62,6.27c1.32,1.32,5.67,5.06,6.43,6.63l-2.08,2.29ZM368,5.16a5.9,5.9,0,0,0-8.32,0L308.21,56.63a5.79,5.79,0,0,0,0,8.2l51.44,51.47a5.9,5.9,0,0,0,8.32,0l51.44-51.47a5.79,5.79,0,0,0,0-8.2Z" transform="translate(-3.01 -3.44)"/><path class="cls-3" d="M366.27,52.53c-1.52.6-4,0-4.54.24l-2.65,2.65c1.32,1.69,11.91,11.82,13.24,13,.94-.84,2.27-1.93,3-2.77.38-3.5-.56-4.34,2.08-5.43.38-.84,4.54-4.7,4.73-4.82,2.65-1.56,3.41,2,7-3-.57-.84-12.29-12.18-13.24-12.66-6.24,5.19-.94,4.1-4.16,7.36C370.43,48.31,367.4,51.81,366.27,52.53Z" transform="translate(-3.01 -3.44)"/><path class="cls-3" d="M377.61,60.37c-1.32,2.29-1.51.12-1.51,5.66-1.13,1-3.4,2.89-4.54,4.1-2.83,3.37-2.08,1.57-6.43,2.41-.75,1-1.89,1.45-2.46,2.53,2.08,2.17,11.73,11.81,13.24,12.54,4-2.41,3-3.74,3-5.55.19-2,2.46-3.13,3.59-4.34,7-7.23,4.35.37,10-5.78-.94-1.57-11.15-10.49-13.05-12.9Z" transform="translate(-3.01 -3.44)"/><path class="cls-3" d="M356.81,57.11c-.57,1.45-1.13.72-1.51,2.17-1.14,3.74,2.27,1-4,7.11-1.33,1.57-1.89,2.9-4.54,2.77a5,5,0,0,0-4.92,2.54l12.67,12.77a7.71,7.71,0,0,0,3.22-2.53c.94-1.93-.76-3,1.13-4.7.95-1,4.73-4.82,5.86-5.06.38-.6-.37-.24.95-.48,2.46-.61,2.65,1.32,6.05-2.66a34.92,34.92,0,0,0-3.4-3.37,20.75,20.75,0,0,0-3.22-3.26c-1.89-1.8-4.73-4.94-6.81-6.26Z" transform="translate(-3.01 -3.44)"/><path class="cls-3" d="M356.62,57a17.42,17.42,0,0,1,2.27-2.53c3-2.89,2.84-2.29,7-2.41L368,49.76c-.76-1.57-5.11-5.31-6.43-6.63a91,91,0,0,0-6.62-6.27c-4,2.53-3.22,3.37-3.22,7-2.08,1.21-3.59,3.13-5.86,5.3-1.7,1.69-2.46.37-4.73,1a27.45,27.45,0,0,0-3,2.41A59.27,59.27,0,0,0,344.71,59c2.27,2.17,4.16,4.34,6.43,6.27C357.57,61.93,351.89,58.56,356.62,57Z" transform="translate(-3.01 -3.44)"/><path class="cls-4" d="M356.62,57l.19.12,1.51-1c2.08,1.32,4.92,4.46,6.81,6.26a20.75,20.75,0,0,1,3.22,3.26,34.92,34.92,0,0,1,3.4,3.37c-3.4,4-3.59,2-6.05,2.66-1.32.24-.57-.12-.95.48l.38.36c4.35-.84,3.6,1,6.43-2.41C372.7,68.92,375,67,376.1,66c0-5.54.19-3.37,1.51-5.66l-.19-.13c-2.64,1.09-1.7,1.93-2.08,5.43-.75.84-2.08,1.93-3,2.77-1.33-1.2-11.92-11.33-13.24-13l2.65-2.65c.57-.24,3,.36,4.54-.24l-.38-.48c-4.16.12-4-.48-7,2.41A17.42,17.42,0,0,0,356.62,57Z" transform="translate(-3.01 -3.44)"/><path class="cls-5" d="M80,89.28V106.2H12.26V92.74l34.6-32.67c7.94-7.56,9.35-12.17,9.35-16.53,0-7-4.87-11.15-14.35-11.15-7.69,0-14.22,3-18.58,9L8.16,31.63C15.08,21.5,27.64,15,43.78,15c20,0,33.31,10.25,33.31,26.52,0,8.71-2.43,16.66-15,28.32L41.48,89.28Z" transform="translate(-3.01 -3.44)"/><path class="cls-6" d="M94.26,16.51H115V89.28h45V106.2H94.26Z" transform="translate(-3.01 -3.44)"/><path class="cls-5" d="M251.34,81.72c0,15.51-12.3,24.48-35.87,24.48H169.09V16.51h43.82c22.42,0,34,9.35,34,23.32a21.57,21.57,0,0,1-11.92,19.73C244.94,62.76,251.34,70.45,251.34,81.72ZM189.71,32.14V53.28h20.63c10.13,0,15.64-3.59,15.64-10.64s-5.51-10.5-15.64-10.5Zm40.75,47.41c0-7.56-5.77-11.15-16.53-11.15H189.71V90.56h24.22C224.69,90.56,230.46,87.23,230.46,79.55Z" transform="translate(-3.01 -3.44)"/><path class="cls-6" d="M3,162.83l2.91-6.27a20.63,20.63,0,0,0,10.47,2.91c4,0,5.54-1.06,5.54-2.74,0-4.93-18.2.11-18.2-11.93,0-5.71,5.16-9.75,14-9.75,4.14,0,8.73,1,11.59,2.64l-2.91,6.21a17.32,17.32,0,0,0-8.68-2.24c-3.92,0-5.6,1.23-5.6,2.8,0,5.15,18.2.17,18.2,12,0,5.6-5.21,9.58-14.23,9.58C11,166.08,5.81,164.68,3,162.83Z" transform="translate(-3.01 -3.44)"/><path class="cls-6" d="M65,153H42.2c.84,3.75,4,6.05,8.63,6.05a10.21,10.21,0,0,0,7.56-2.91l4.65,5c-2.8,3.19-7,4.87-12.44,4.87-10.41,0-17.19-6.55-17.19-15.51s6.89-15.52,16.07-15.52c8.85,0,15.68,5.94,15.68,15.63C65.16,151.35,65.05,152.3,65,153Zm-22.91-5.1H56.93a7.16,7.16,0,0,0-7.39-6.27A7.14,7.14,0,0,0,42.09,147.93Z" transform="translate(-3.01 -3.44)"/><path class="cls-6" d="M68.75,150.57c0-9.08,7-15.52,16.8-15.52,6.33,0,11.31,2.75,13.49,7.68l-6.77,3.64a7.52,7.52,0,0,0-6.78-4.15c-4.42,0-7.89,3.08-7.89,8.35s3.47,8.34,7.89,8.34a7.42,7.42,0,0,0,6.78-4.14L99,158.46c-2.18,4.82-7.16,7.62-13.49,7.62C75.75,166.08,68.75,159.64,68.75,150.57Z" transform="translate(-3.01 -3.44)"/><path class="cls-6" d="M101.45,150.57c0-9.08,7-15.52,16.58-15.52s16.52,6.44,16.52,15.52-7,15.51-16.52,15.51S101.45,159.64,101.45,150.57Zm24.25,0c0-5.21-3.3-8.35-7.67-8.35s-7.73,3.14-7.73,8.35,3.36,8.34,7.73,8.34S125.7,155.77,125.7,150.57Z" transform="translate(-3.01 -3.44)"/><path class="cls-6" d="M171.17,148.38v17.25h-8.73v-15.9c0-4.88-2.24-7.12-6.11-7.12-4.2,0-7.22,2.58-7.22,8.12v14.9h-8.74V135.5h8.35V139a13.17,13.17,0,0,1,10-4C165.8,135.05,171.17,139.2,171.17,148.38Z" transform="translate(-3.01 -3.44)"/><path class="cls-6" d="M210.09,124.08v41.55h-8.34v-3.47c-2.19,2.63-5.38,3.92-9.41,3.92-8.51,0-15.06-6.05-15.06-15.51s6.55-15.52,15.06-15.52a11.6,11.6,0,0,1,9,3.64V124.08Zm-8.57,26.49c0-5.21-3.36-8.35-7.67-8.35s-7.73,3.14-7.73,8.35,3.36,8.34,7.73,8.34S201.52,155.77,201.52,150.57Z" transform="translate(-3.01 -3.44)"/><path class="cls-7" d="M218.15,124.08h8.74v41.55h-8.74Z" transform="translate(-3.01 -3.44)"/><path class="cls-7" d="M234,126.43c0-2.74,2.18-4.87,5.43-4.87s5.43,2,5.43,4.7c0,2.91-2.18,5-5.43,5S234,129.17,234,126.43ZM235,135.5h8.74v30.13H235Z" transform="translate(-3.01 -3.44)"/><path class="cls-7" d="M261.44,136.17h7.73v6.72h-7.5v22.74h-8.74V142.89h-4.65v-6.72h4.65v-1.34c0-6.78,4.14-11.2,11.65-11.2a12.37,12.37,0,0,1,6.66,1.62L269,131.58a6.16,6.16,0,0,0-3.53-1.06c-2.58,0-4,1.4-4,4.37Z" transform="translate(-3.01 -3.44)"/><path class="cls-7" d="M302.49,153H279.7c.84,3.75,4,6.05,8.62,6.05a10.21,10.21,0,0,0,7.56-2.91l4.65,5c-2.8,3.19-7,4.87-12.43,4.87-10.42,0-17.19-6.55-17.19-15.51s6.88-15.52,16.07-15.52c8.85,0,15.68,5.94,15.68,15.63C302.66,151.35,302.55,152.3,302.49,153Zm-22.9-5.1h14.84a7.53,7.53,0,0,0-14.84,0Z" transform="translate(-3.01 -3.44)"/><path class="cls-6" d="M344.28,150.79c0,9.07-6.32,15.18-15,15.18a12.55,12.55,0,0,1-10.59-5v4.7h-5.15V124.08h5.38v16.35a12.63,12.63,0,0,1,10.36-4.76C338,135.67,344.28,141.72,344.28,150.79Zm-5.43,0c0-6.33-4.31-10.42-10-10.42s-10,4.09-10,10.42,4.31,10.47,10,10.47S338.85,157.12,338.85,150.79Z" transform="translate(-3.01 -3.44)"/><path class="cls-6" d="M367.69,135.67v5.21a8.87,8.87,0,0,0-1.23-.06c-5.77,0-9.35,3.53-9.35,10v14.78h-5.38V136h5.15v5C358.79,137.46,362.48,135.67,367.69,135.67Z" transform="translate(-3.01 -3.44)"/><path class="cls-6" d="M402.36,136v29.68h-5.1v-4.48A12.07,12.07,0,0,1,387.18,166c-7.67,0-12.77-4.2-12.77-12.94V136h5.38v16.46c0,5.83,2.91,8.74,8,8.74,5.6,0,9.18-3.47,9.18-9.86V136Z" transform="translate(-3.01 -3.44)"/><path class="cls-6" d="M424.14,151.8,418,157.51v8.12H412.6V124.08H418v26.65L434.16,136h6.5l-12.49,12.26,13.72,17.42h-6.61Z" transform="translate(-3.01 -3.44)"/></svg>