<svg xmlns="http://www.w3.org/2000/svg" viewBox="0 0 438.89 44.52"><defs><style>.cls-1{fill:#505051;}.cls-2{fill:#f08c00;}</style></defs><title>Zasób 4</title><g id="Warstwa_2" data-name="Warstwa 2"><g id="Warstwa_1-2" data-name="Warstwa 1"><path class="cls-1" d="M1.12,44.8,4,38.53A20.69,20.69,0,0,0,14.5,41.44c4,0,5.55-1.06,5.55-2.74,0-4.93-18.2.11-18.2-11.93C1.85,21.06,7,17,15.79,17c4.15,0,8.74,1,11.59,2.64l-2.91,6.21a17.29,17.29,0,0,0-8.68-2.24c-3.92,0-5.6,1.23-5.6,2.8,0,5.15,18.2.17,18.2,12,0,5.6-5.21,9.58-14.22,9.58C9.07,48.05,3.92,46.65,1.12,44.8Z" transform="translate(-1.12 -3.53)"/><path class="cls-1" d="M63.11,35H40.32c.84,3.75,4,6,8.62,6a10.2,10.2,0,0,0,7.56-2.91l4.65,5c-2.8,3.19-7,4.87-12.43,4.87-10.42,0-17.19-6.55-17.19-15.51S38.42,17,47.6,17C56.45,17,63.28,23,63.28,32.65,63.28,33.32,63.17,34.27,63.11,35Zm-22.9-5.1H55.05a7.16,7.16,0,0,0-7.39-6.27A7.13,7.13,0,0,0,40.21,29.9Z" transform="translate(-1.12 -3.53)"/><path class="cls-1" d="M66.86,32.54c0-9.08,7-15.52,16.8-15.52C90,17,95,19.77,97.16,24.7l-6.78,3.64a7.5,7.5,0,0,0-6.77-4.15c-4.43,0-7.9,3.08-7.9,8.35s3.47,8.34,7.9,8.34a7.4,7.4,0,0,0,6.77-4.14l6.78,3.69C95,45.25,90,48.05,83.66,48.05,73.86,48.05,66.86,41.61,66.86,32.54Z" transform="translate(-1.12 -3.53)"/><path class="cls-1" d="M99.57,32.54c0-9.08,7-15.52,16.57-15.52s16.52,6.44,16.52,15.52-6.94,15.51-16.52,15.51S99.57,41.61,99.57,32.54Zm24.25,0c0-5.21-3.31-8.35-7.68-8.35s-7.72,3.14-7.72,8.35,3.36,8.34,7.72,8.34S123.82,37.74,123.82,32.54Z" transform="translate(-1.12 -3.53)"/><path class="cls-1" d="M169.29,30.35V47.6h-8.74V31.7c0-4.88-2.24-7.12-6.1-7.12-4.2,0-7.23,2.58-7.23,8.12V47.6h-8.73V17.47h8.34V21a13.18,13.18,0,0,1,10-4C163.91,17,169.29,21.17,169.29,30.35Z" transform="translate(-1.12 -3.53)"/><path class="cls-1" d="M208.21,6.05V47.6h-8.35V44.13c-2.18,2.63-5.37,3.92-9.41,3.92-8.51,0-15.06-6-15.06-15.51S181.94,17,190.45,17a11.59,11.59,0,0,1,9,3.64V6.05Zm-8.57,26.49c0-5.21-3.36-8.35-7.67-8.35s-7.73,3.14-7.73,8.35,3.36,8.34,7.73,8.34S199.64,37.74,199.64,32.54Z" transform="translate(-1.12 -3.53)"/><path class="cls-2" d="M216.27,6.05H225V47.6h-8.74Z" transform="translate(-1.12 -3.53)"/><path class="cls-2" d="M232.06,8.4c0-2.74,2.19-4.87,5.43-4.87s5.44,2,5.44,4.7c0,2.91-2.19,5-5.44,5S232.06,11.14,232.06,8.4Zm1.07,9.07h8.73V47.6h-8.73Z" transform="translate(-1.12 -3.53)"/><path class="cls-2" d="M259.56,18.14h7.73v6.72h-7.51V47.6h-8.73V24.86H246.4V18.14h4.65V16.8c0-6.78,4.14-11.2,11.64-11.2a12.4,12.4,0,0,1,6.67,1.62l-2.3,6.33a6.12,6.12,0,0,0-3.53-1.06c-2.57,0-4,1.4-4,4.37Z" transform="translate(-1.12 -3.53)"/><path class="cls-2" d="M300.61,35h-22.8c.84,3.75,4,6,8.63,6A10.21,10.21,0,0,0,294,38.14l4.65,5c-2.8,3.19-7,4.87-12.44,4.87C275.8,48.05,269,41.5,269,32.54S275.91,17,285.09,17c8.85,0,15.68,5.94,15.68,15.63C300.77,33.32,300.66,34.27,300.61,35ZM277.7,29.9h14.84a7.53,7.53,0,0,0-14.84,0Z" transform="translate(-1.12 -3.53)"/><path class="cls-1" d="M342.4,32.76c0,9.07-6.33,15.18-15,15.18a12.52,12.52,0,0,1-10.58-5v4.7h-5.15V6.05H317V22.4a12.64,12.64,0,0,1,10.36-4.76C336.07,17.64,342.4,23.69,342.4,32.76Zm-5.43,0c0-6.33-4.32-10.42-10-10.42s-10,4.09-10,10.42,4.31,10.47,10,10.47S337,39.09,337,32.76Z" transform="translate(-1.12 -3.53)"/><path class="cls-1" d="M365.81,17.64v5.21a8.93,8.93,0,0,0-1.24-.06c-5.76,0-9.35,3.53-9.35,10V47.6h-5.37V17.92H355v5C356.9,19.43,360.6,17.64,365.81,17.64Z" transform="translate(-1.12 -3.53)"/><path class="cls-1" d="M400.47,17.92V47.6h-5.1V43.12a12.07,12.07,0,0,1-10.08,4.82c-7.67,0-12.76-4.2-12.76-12.94V17.92h5.37V34.38c0,5.83,2.91,8.74,8,8.74,5.6,0,9.18-3.47,9.18-9.86V17.92Z" transform="translate(-1.12 -3.53)"/><path class="cls-1" d="M422.25,33.77l-6.16,5.71V47.6h-5.37V6.05h5.37V32.7l16.19-14.78h6.49L426.29,30.18,440,47.6H433.4Z" transform="translate(-1.12 -3.53)"/></g></g></svg>